<svg width="665" height="138" viewBox="0 0 665 138" fill="none" xmlns="http://www.w3.org/2000/svg">
<path d="M92.3657 13.264C99.235 13.264 104.227 14.608 107.342 17.296C110.499 19.9413 112.078 24.0373 112.078 29.584C112.078 35.088 110.456 39.12 107.214 41.68C104.014 44.24 99.107 45.52 92.4937 45.52H86.5417V58H76.5577V13.264H92.3657ZM93.2617 36.88C96.5897 36.88 98.851 36.2187 100.046 34.896C101.24 33.5307 101.838 31.568 101.838 29.008C101.838 26.4053 101.048 24.5707 99.4697 23.504C97.9337 22.3947 95.523 21.84 92.2377 21.84H86.5417V36.88H93.2617ZM147.596 58H138.572V53.84C136.097 56.9547 133.025 58.512 129.356 58.512C125.729 58.512 122.678 57.4667 120.204 55.376C117.729 53.2427 116.492 50.4267 116.492 46.928C116.492 43.3867 117.772 40.7413 120.332 38.992C122.892 37.2427 126.39 36.368 130.828 36.368H137.996V36.176C137.996 32.5067 136.054 30.672 132.172 30.672C130.508 30.672 128.737 31.0133 126.86 31.696C125.025 32.336 123.468 33.1467 122.188 34.128L117.9 27.92C122.422 24.6347 127.585 22.992 133.388 22.992C137.569 22.992 140.982 24.0373 143.628 26.128C146.273 28.2187 147.596 31.5253 147.596 36.048V58ZM137.932 44.88V43.216H131.916C128.076 43.216 126.156 44.4107 126.156 46.8C126.156 48.0373 126.604 48.9973 127.5 49.68C128.438 50.32 129.761 50.64 131.468 50.64C133.174 50.64 134.668 50.128 135.948 49.104C137.27 48.0373 137.932 46.6293 137.932 44.88ZM180.476 40.08C180.476 37.3067 179.708 35.1307 178.172 33.552C176.636 31.9733 174.737 31.184 172.476 31.184C170.214 31.184 168.252 31.9733 166.588 33.552C164.966 35.1307 164.156 37.2853 164.156 40.016C164.156 42.7467 164.945 44.9653 166.524 46.672C168.145 48.336 170.108 49.168 172.412 49.168C174.716 49.168 176.636 48.336 178.172 46.672C179.708 45.008 180.476 42.8107 180.476 40.08ZM181.82 52.176C178.79 55.5467 175.014 57.232 170.492 57.232C166.012 57.232 162.214 55.7173 159.1 52.688C156.028 49.616 154.492 45.5413 154.492 40.464C154.492 35.344 156.07 31.1627 159.228 27.92C162.428 24.6347 166.076 22.992 170.172 22.992C174.268 22.992 177.66 24.6773 180.348 28.048V23.504H189.948V53.52C189.948 56.592 189.414 59.3227 188.348 61.712C187.281 64.1013 185.852 65.9787 184.06 67.344C180.518 70.16 176.337 71.568 171.516 71.568C168.956 71.568 166.332 71.1413 163.644 70.288C160.998 69.4773 158.673 68.304 156.668 66.768L160.38 59.536C163.537 61.9253 166.865 63.12 170.364 63.12C173.905 63.12 176.7 62.2453 178.748 60.496C180.796 58.7467 181.82 55.9733 181.82 52.176ZM228.859 53.008C224.977 56.6773 220.411 58.512 215.163 58.512C209.958 58.512 205.649 56.912 202.235 53.712C198.822 50.4693 197.115 46.1387 197.115 40.72C197.115 35.3013 198.843 30.992 202.299 27.792C205.798 24.592 209.915 22.992 214.651 22.992C219.387 22.992 223.398 24.4213 226.683 27.28C230.011 30.1387 231.675 34.064 231.675 39.056V44.176H206.587C206.886 46.0533 207.867 47.5893 209.531 48.784C211.195 49.9787 213.073 50.576 215.163 50.576C218.534 50.576 221.307 49.4453 223.483 47.184L228.859 53.008ZM221.947 37.328C221.734 35.28 220.966 33.7013 219.643 32.592C218.321 31.4827 216.699 30.928 214.779 30.928C212.902 30.928 211.174 31.504 209.595 32.656C208.017 33.808 207.099 35.3653 206.843 37.328H221.947ZM287.729 13.264H297.713V58H287.729L266.417 29.968V58H256.433V13.264H265.777L287.729 42.064V13.264ZM315.465 40.784C315.465 43.6 316.255 45.904 317.833 47.696C319.455 49.4453 321.503 50.32 323.977 50.32C326.495 50.32 328.543 49.4453 330.121 47.696C331.743 45.904 332.553 43.6 332.553 40.784C332.553 37.968 331.743 35.664 330.121 33.872C328.543 32.08 326.495 31.184 323.977 31.184C321.503 31.184 319.455 32.08 317.833 33.872C316.255 35.664 315.465 37.968 315.465 40.784ZM342.217 40.784C342.217 45.776 340.489 49.9787 337.033 53.392C333.577 56.8053 329.225 58.512 323.977 58.512C318.772 58.512 314.441 56.8053 310.985 53.392C307.529 49.9787 305.801 45.776 305.801 40.784C305.801 35.792 307.529 31.5893 310.985 28.176C314.441 24.72 318.772 22.992 323.977 22.992C329.225 22.992 333.577 24.72 337.033 28.176C340.489 31.5893 342.217 35.792 342.217 40.784ZM360.179 30.48V45.904C360.179 47.2267 360.52 48.272 361.203 49.04C361.885 49.7653 362.696 50.128 363.635 50.128C365.427 50.128 366.941 49.3173 368.179 47.696L371.763 54.416C368.776 57.1467 365.619 58.512 362.291 58.512C359.005 58.512 356.211 57.424 353.907 55.248C351.645 53.072 350.515 50.1067 350.515 46.352V30.48H346.483V23.568H350.515V13.264H360.179V23.568H368.499V30.48H360.179ZM425.465 13.264V22.032H404.729V31.696H424.441V40.464H404.729V58H394.745V13.264H425.465ZM439.965 40.784C439.965 43.6 440.755 45.904 442.333 47.696C443.955 49.4453 446.003 50.32 448.477 50.32C450.995 50.32 453.043 49.4453 454.621 47.696C456.243 45.904 457.053 43.6 457.053 40.784C457.053 37.968 456.243 35.664 454.621 33.872C453.043 32.08 450.995 31.184 448.477 31.184C446.003 31.184 443.955 32.08 442.333 33.872C440.755 35.664 439.965 37.968 439.965 40.784ZM466.717 40.784C466.717 45.776 464.989 49.9787 461.533 53.392C458.077 56.8053 453.725 58.512 448.477 58.512C443.272 58.512 438.941 56.8053 435.485 53.392C432.029 49.9787 430.301 45.776 430.301 40.784C430.301 35.792 432.029 31.5893 435.485 28.176C438.941 24.72 443.272 22.992 448.477 22.992C453.725 22.992 458.077 24.72 461.533 28.176C464.989 31.5893 466.717 35.792 466.717 40.784ZM496.056 42.128V23.568H505.72V58H496.056V53.456C493.666 56.8267 490.573 58.512 486.776 58.512C483.021 58.512 479.864 57.3387 477.304 54.992C474.744 52.6027 473.464 49.0827 473.464 44.432V23.568H483.128V42.32C483.128 47.6107 485.069 50.256 488.952 50.256C490.872 50.256 492.536 49.5733 493.944 48.208C495.352 46.8 496.056 44.7733 496.056 42.128ZM524.385 38.8V58H514.785V23.568H524.385V27.408C527.287 24.464 530.551 22.992 534.177 22.992C537.804 22.992 540.833 24.272 543.265 26.832C545.74 29.392 546.977 32.8053 546.977 37.072V58H537.377V38.544C537.377 33.2533 535.436 30.608 531.553 30.608C529.633 30.608 527.948 31.312 526.497 32.72C525.089 34.0853 524.385 36.112 524.385 38.8ZM569.42 58.512C565.367 58.512 561.74 56.784 558.54 53.328C555.34 49.872 553.74 45.584 553.74 40.464C553.74 35.344 555.298 31.1627 558.412 27.92C561.527 24.6347 565.175 22.992 569.356 22.992C573.538 22.992 576.951 24.464 579.596 27.408V10.512H589.196V58H579.596V53.456C576.908 56.8267 573.516 58.512 569.42 58.512ZM563.404 40.848C563.404 43.6213 564.236 45.904 565.9 47.696C567.564 49.4453 569.506 50.32 571.724 50.32C573.943 50.32 575.82 49.4453 577.356 47.696C578.935 45.904 579.724 43.6213 579.724 40.848C579.724 38.032 578.935 35.7067 577.356 33.872C575.82 31.9947 573.922 31.056 571.66 31.056C569.399 31.056 567.458 31.9947 565.836 33.872C564.215 35.7493 563.404 38.0747 563.404 40.848Z" fill="#282828"/>
<path d="M53.0202 106L48.3402 92H50.4002L54.7002 104.92H53.6602L58.1202 92H59.9602L64.3202 104.92H63.3202L67.6802 92H69.5802L64.9002 106H62.8002L58.7202 94.02H59.2602L55.1602 106H53.0202ZM75.666 106.12C74.5326 106.12 73.5326 105.887 72.666 105.42C71.8126 104.953 71.146 104.313 70.666 103.5C70.1993 102.687 69.966 101.753 69.966 100.7C69.966 99.6467 70.1926 98.7133 70.646 97.9C71.1126 97.0867 71.746 96.4533 72.546 96C73.3593 95.5333 74.2726 95.3 75.286 95.3C76.3126 95.3 77.2193 95.5267 78.006 95.98C78.7926 96.4333 79.406 97.0733 79.846 97.9C80.2993 98.7133 80.526 99.6667 80.526 100.76C80.526 100.84 80.5193 100.933 80.506 101.04C80.506 101.147 80.4993 101.247 80.486 101.34H71.466V99.96H79.486L78.706 100.44C78.7193 99.76 78.5793 99.1533 78.286 98.62C77.9926 98.0867 77.586 97.6733 77.066 97.38C76.5593 97.0733 75.966 96.92 75.286 96.92C74.6193 96.92 74.026 97.0733 73.506 97.38C72.986 97.6733 72.5793 98.0933 72.286 98.64C71.9926 99.1733 71.846 99.7867 71.846 100.48V100.8C71.846 101.507 72.006 102.14 72.326 102.7C72.6593 103.247 73.1193 103.673 73.706 103.98C74.2926 104.287 74.966 104.44 75.726 104.44C76.3526 104.44 76.9193 104.333 77.426 104.12C77.946 103.907 78.3993 103.587 78.786 103.16L79.846 104.4C79.366 104.96 78.766 105.387 78.046 105.68C77.3393 105.973 76.546 106.12 75.666 106.12ZM82.4125 96.62L83.4125 92.56L83.6725 93.72C83.2859 93.72 82.9592 93.6 82.6925 93.36C82.4392 93.12 82.3125 92.8 82.3125 92.4C82.3125 91.9867 82.4392 91.66 82.6925 91.42C82.9592 91.1667 83.2792 91.04 83.6525 91.04C84.0392 91.04 84.3525 91.1733 84.5925 91.44C84.8325 91.6933 84.9525 92.0133 84.9525 92.4C84.9525 92.52 84.9459 92.6467 84.9325 92.78C84.9192 92.9 84.8859 93.04 84.8325 93.2C84.7925 93.36 84.7259 93.5667 84.6325 93.82L83.6725 96.62H82.4125ZM87.7038 106V95.4H89.5438V98.28L89.3638 97.56C89.6571 96.8267 90.1505 96.2667 90.8438 95.88C91.5371 95.4933 92.3905 95.3 93.4038 95.3V97.16C93.3238 97.1467 93.2438 97.14 93.1638 97.14C93.0971 97.14 93.0305 97.14 92.9638 97.14C91.9371 97.14 91.1238 97.4467 90.5238 98.06C89.9238 98.6733 89.6238 99.56 89.6238 100.72V106H87.7038ZM100.393 106.12C99.2592 106.12 98.2592 105.887 97.3925 105.42C96.5392 104.953 95.8725 104.313 95.3925 103.5C94.9259 102.687 94.6925 101.753 94.6925 100.7C94.6925 99.6467 94.9192 98.7133 95.3725 97.9C95.8392 97.0867 96.4725 96.4533 97.2725 96C98.0859 95.5333 98.9992 95.3 100.013 95.3C101.039 95.3 101.946 95.5267 102.733 95.98C103.519 96.4333 104.133 97.0733 104.573 97.9C105.026 98.7133 105.253 99.6667 105.253 100.76C105.253 100.84 105.246 100.933 105.233 101.04C105.233 101.147 105.226 101.247 105.213 101.34H96.1925V99.96H104.213L103.433 100.44C103.446 99.76 103.306 99.1533 103.013 98.62C102.719 98.0867 102.313 97.6733 101.793 97.38C101.286 97.0733 100.693 96.92 100.013 96.92C99.3459 96.92 98.7525 97.0733 98.2325 97.38C97.7125 97.6733 97.3059 98.0933 97.0125 98.64C96.7192 99.1733 96.5725 99.7867 96.5725 100.48V100.8C96.5725 101.507 96.7325 102.14 97.0525 102.7C97.3859 103.247 97.8459 103.673 98.4325 103.98C99.0192 104.287 99.6925 104.44 100.453 104.44C101.079 104.44 101.646 104.333 102.153 104.12C102.673 103.907 103.126 103.587 103.513 103.16L104.573 104.4C104.093 104.96 103.493 105.387 102.773 105.68C102.066 105.973 101.273 106.12 100.393 106.12ZM116.33 106.12C115.45 106.12 114.61 106 113.81 105.76C113.023 105.52 112.403 105.227 111.95 104.88L112.75 103.36C113.203 103.667 113.763 103.927 114.43 104.14C115.096 104.353 115.776 104.46 116.47 104.46C117.363 104.46 118.003 104.333 118.39 104.08C118.79 103.827 118.99 103.473 118.99 103.02C118.99 102.687 118.87 102.427 118.63 102.24C118.39 102.053 118.07 101.913 117.67 101.82C117.283 101.727 116.85 101.647 116.37 101.58C115.89 101.5 115.41 101.407 114.93 101.3C114.45 101.18 114.01 101.02 113.61 100.82C113.21 100.607 112.89 100.32 112.65 99.96C112.41 99.5867 112.29 99.0933 112.29 98.48C112.29 97.84 112.47 97.28 112.83 96.8C113.19 96.32 113.696 95.9533 114.35 95.7C115.016 95.4333 115.803 95.3 116.71 95.3C117.403 95.3 118.103 95.3867 118.81 95.56C119.53 95.72 120.116 95.9533 120.57 96.26L119.75 97.78C119.27 97.46 118.77 97.24 118.25 97.12C117.73 97 117.21 96.94 116.69 96.94C115.85 96.94 115.223 97.08 114.81 97.36C114.396 97.6267 114.19 97.9733 114.19 98.4C114.19 98.76 114.31 99.04 114.55 99.24C114.803 99.4267 115.123 99.5733 115.51 99.68C115.91 99.7867 116.35 99.88 116.83 99.96C117.31 100.027 117.79 100.12 118.27 100.24C118.75 100.347 119.183 100.5 119.57 100.7C119.97 100.9 120.29 101.18 120.53 101.54C120.783 101.9 120.91 102.38 120.91 102.98C120.91 103.62 120.723 104.173 120.35 104.64C119.976 105.107 119.45 105.473 118.77 105.74C118.09 105.993 117.276 106.12 116.33 106.12ZM127.849 106.12C126.783 106.12 125.836 105.887 125.009 105.42C124.183 104.953 123.529 104.313 123.049 103.5C122.569 102.673 122.329 101.74 122.329 100.7C122.329 99.6467 122.569 98.7133 123.049 97.9C123.529 97.0867 124.183 96.4533 125.009 96C125.836 95.5333 126.783 95.3 127.849 95.3C128.903 95.3 129.843 95.5333 130.669 96C131.509 96.4533 132.163 97.0867 132.629 97.9C133.109 98.7 133.349 99.6333 133.349 100.7C133.349 101.753 133.109 102.687 132.629 103.5C132.163 104.313 131.509 104.953 130.669 105.42C129.843 105.887 128.903 106.12 127.849 106.12ZM127.849 104.44C128.529 104.44 129.136 104.287 129.669 103.98C130.216 103.673 130.643 103.24 130.949 102.68C131.256 102.107 131.409 101.447 131.409 100.7C131.409 99.94 131.256 99.2867 130.949 98.74C130.643 98.18 130.216 97.7467 129.669 97.44C129.136 97.1333 128.529 96.98 127.849 96.98C127.169 96.98 126.563 97.1333 126.029 97.44C125.496 97.7467 125.069 98.18 124.749 98.74C124.429 99.2867 124.269 99.94 124.269 100.7C124.269 101.447 124.429 102.107 124.749 102.68C125.069 103.24 125.496 103.673 126.029 103.98C126.563 104.287 127.169 104.44 127.849 104.44ZM136.005 106V95.4H137.845V98.28L137.665 97.56C137.958 96.8267 138.451 96.2667 139.145 95.88C139.838 95.4933 140.691 95.3 141.705 95.3V97.16C141.625 97.1467 141.545 97.14 141.465 97.14C141.398 97.14 141.331 97.14 141.265 97.14C140.238 97.14 139.425 97.4467 138.825 98.06C138.225 98.6733 137.925 99.56 137.925 100.72V106H136.005ZM144.071 106V95.4H145.911V98.28L145.731 97.56C146.024 96.8267 146.518 96.2667 147.211 95.88C147.904 95.4933 148.758 95.3 149.771 95.3V97.16C149.691 97.1467 149.611 97.14 149.531 97.14C149.464 97.14 149.398 97.14 149.331 97.14C148.304 97.14 147.491 97.4467 146.891 98.06C146.291 98.6733 145.991 99.56 145.991 100.72V106H144.071ZM153.027 110C152.52 110 152.027 109.913 151.547 109.74C151.067 109.58 150.654 109.34 150.307 109.02L151.127 107.58C151.394 107.833 151.687 108.027 152.007 108.16C152.327 108.293 152.667 108.36 153.027 108.36C153.494 108.36 153.88 108.24 154.187 108C154.494 107.76 154.78 107.333 155.047 106.72L155.707 105.26L155.907 105.02L160.067 95.4H161.947L156.807 107.06C156.5 107.807 156.154 108.393 155.767 108.82C155.394 109.247 154.98 109.547 154.527 109.72C154.074 109.907 153.574 110 153.027 110ZM155.547 106.34L150.707 95.4H152.707L156.827 104.84L155.547 106.34ZM162.315 108.96L163.315 104.92L163.575 106.08C163.188 106.08 162.862 105.96 162.595 105.72C162.342 105.48 162.215 105.153 162.215 104.74C162.215 104.34 162.342 104.013 162.595 103.76C162.862 103.507 163.182 103.38 163.555 103.38C163.942 103.38 164.255 103.513 164.495 103.78C164.735 104.033 164.855 104.353 164.855 104.74C164.855 104.873 164.842 105.007 164.815 105.14C164.802 105.26 164.768 105.407 164.715 105.58C164.675 105.74 164.608 105.94 164.515 106.18L163.575 108.96H162.315ZM176.617 106.12C175.551 106.12 174.724 105.833 174.137 105.26C173.551 104.687 173.257 103.867 173.257 102.8V93.08H175.177V102.72C175.177 103.293 175.317 103.733 175.597 104.04C175.891 104.347 176.304 104.5 176.837 104.5C177.437 104.5 177.937 104.333 178.337 104L178.937 105.38C178.644 105.633 178.291 105.82 177.877 105.94C177.477 106.06 177.057 106.12 176.617 106.12ZM171.457 96.98V95.4H178.217V96.98H171.457ZM186.918 95.3C187.785 95.3 188.545 95.4667 189.198 95.8C189.865 96.1333 190.385 96.64 190.758 97.32C191.132 98 191.318 98.86 191.318 99.9V106H189.398V100.12C189.398 99.0933 189.145 98.32 188.638 97.8C188.145 97.28 187.445 97.02 186.538 97.02C185.858 97.02 185.265 97.1533 184.758 97.42C184.252 97.6867 183.858 98.08 183.578 98.6C183.312 99.12 183.178 99.7667 183.178 100.54V106H181.258V91.16H183.178V98.26L182.798 97.5C183.145 96.8067 183.678 96.2667 184.398 95.88C185.118 95.4933 185.958 95.3 186.918 95.3ZM199.592 106.12C198.458 106.12 197.458 105.887 196.592 105.42C195.738 104.953 195.072 104.313 194.592 103.5C194.125 102.687 193.892 101.753 193.892 100.7C193.892 99.6467 194.118 98.7133 194.572 97.9C195.038 97.0867 195.672 96.4533 196.472 96C197.285 95.5333 198.198 95.3 199.212 95.3C200.238 95.3 201.145 95.5267 201.932 95.98C202.718 96.4333 203.332 97.0733 203.772 97.9C204.225 98.7133 204.452 99.6667 204.452 100.76C204.452 100.84 204.445 100.933 204.432 101.04C204.432 101.147 204.425 101.247 204.412 101.34H195.392V99.96H203.412L202.632 100.44C202.645 99.76 202.505 99.1533 202.212 98.62C201.918 98.0867 201.512 97.6733 200.992 97.38C200.485 97.0733 199.892 96.92 199.212 96.92C198.545 96.92 197.952 97.0733 197.432 97.38C196.912 97.6733 196.505 98.0933 196.212 98.64C195.918 99.1733 195.772 99.7867 195.772 100.48V100.8C195.772 101.507 195.932 102.14 196.252 102.7C196.585 103.247 197.045 103.673 197.632 103.98C198.218 104.287 198.892 104.44 199.652 104.44C200.278 104.44 200.845 104.333 201.352 104.12C201.872 103.907 202.325 103.587 202.712 103.16L203.772 104.4C203.292 104.96 202.692 105.387 201.972 105.68C201.265 105.973 200.472 106.12 199.592 106.12ZM218.109 106.12C217.229 106.12 216.422 105.92 215.689 105.52C214.969 105.107 214.389 104.5 213.949 103.7C213.522 102.9 213.309 101.9 213.309 100.7C213.309 99.5 213.516 98.5 213.929 97.7C214.356 96.9 214.929 96.3 215.649 95.9C216.382 95.5 217.202 95.3 218.109 95.3C219.149 95.3 220.069 95.5267 220.869 95.98C221.669 96.4333 222.302 97.0667 222.769 97.88C223.236 98.68 223.469 99.62 223.469 100.7C223.469 101.78 223.236 102.727 222.769 103.54C222.302 104.353 221.669 104.987 220.869 105.44C220.069 105.893 219.149 106.12 218.109 106.12ZM212.489 109.88V95.4H214.329V98.26L214.209 100.72L214.409 103.18V109.88H212.489ZM217.949 104.44C218.629 104.44 219.236 104.287 219.769 103.98C220.316 103.673 220.742 103.24 221.049 102.68C221.369 102.107 221.529 101.447 221.529 100.7C221.529 99.94 221.369 99.2867 221.049 98.74C220.742 98.18 220.316 97.7467 219.769 97.44C219.236 97.1333 218.629 96.98 217.949 96.98C217.282 96.98 216.676 97.1333 216.129 97.44C215.596 97.7467 215.169 98.18 214.849 98.74C214.542 99.2867 214.389 99.94 214.389 100.7C214.389 101.447 214.542 102.107 214.849 102.68C215.169 103.24 215.596 103.673 216.129 103.98C216.676 104.287 217.282 104.44 217.949 104.44ZM232.604 106V103.76L232.504 103.34V99.52C232.504 98.7067 232.264 98.08 231.784 97.64C231.317 97.1867 230.611 96.96 229.664 96.96C229.037 96.96 228.424 97.0667 227.824 97.28C227.224 97.48 226.717 97.7533 226.304 98.1L225.504 96.66C226.051 96.22 226.704 95.8867 227.464 95.66C228.237 95.42 229.044 95.3 229.884 95.3C231.337 95.3 232.457 95.6533 233.244 96.36C234.031 97.0667 234.424 98.1467 234.424 99.6V106H232.604ZM229.124 106.12C228.337 106.12 227.644 105.987 227.044 105.72C226.457 105.453 226.004 105.087 225.684 104.62C225.364 104.14 225.204 103.6 225.204 103C225.204 102.427 225.337 101.907 225.604 101.44C225.884 100.973 226.331 100.6 226.944 100.32C227.571 100.04 228.411 99.9 229.464 99.9H232.824V101.28H229.544C228.584 101.28 227.937 101.44 227.604 101.76C227.271 102.08 227.104 102.467 227.104 102.92C227.104 103.44 227.311 103.86 227.724 104.18C228.137 104.487 228.711 104.64 229.444 104.64C230.164 104.64 230.791 104.48 231.324 104.16C231.871 103.84 232.264 103.373 232.504 102.76L232.884 104.08C232.631 104.707 232.184 105.207 231.544 105.58C230.904 105.94 230.097 106.12 229.124 106.12ZM242.617 110C241.644 110 240.697 109.86 239.777 109.58C238.871 109.313 238.131 108.927 237.557 108.42L238.477 106.94C238.971 107.367 239.577 107.7 240.297 107.94C241.017 108.193 241.771 108.32 242.557 108.32C243.811 108.32 244.731 108.027 245.317 107.44C245.904 106.853 246.197 105.96 246.197 104.76V102.52L246.397 100.42L246.297 98.3V95.4H248.117V104.56C248.117 106.427 247.651 107.8 246.717 108.68C245.784 109.56 244.417 110 242.617 110ZM242.377 105.56C241.351 105.56 240.431 105.347 239.617 104.92C238.817 104.48 238.177 103.873 237.697 103.1C237.231 102.327 236.997 101.433 236.997 100.42C236.997 99.3933 237.231 98.5 237.697 97.74C238.177 96.9667 238.817 96.3667 239.617 95.94C240.431 95.5133 241.351 95.3 242.377 95.3C243.284 95.3 244.111 95.4867 244.857 95.86C245.604 96.22 246.197 96.78 246.637 97.54C247.091 98.3 247.317 99.26 247.317 100.42C247.317 101.567 247.091 102.52 246.637 103.28C246.197 104.04 245.604 104.613 244.857 105C244.111 105.373 243.284 105.56 242.377 105.56ZM242.597 103.88C243.304 103.88 243.931 103.733 244.477 103.44C245.024 103.147 245.451 102.74 245.757 102.22C246.077 101.7 246.237 101.1 246.237 100.42C246.237 99.74 246.077 99.14 245.757 98.62C245.451 98.1 245.024 97.7 244.477 97.42C243.931 97.1267 243.304 96.98 242.597 96.98C241.891 96.98 241.257 97.1267 240.697 97.42C240.151 97.7 239.717 98.1 239.397 98.62C239.091 99.14 238.937 99.74 238.937 100.42C238.937 101.1 239.091 101.7 239.397 102.22C239.717 102.74 240.151 103.147 240.697 103.44C241.257 103.733 241.891 103.88 242.597 103.88ZM256.506 106.12C255.372 106.12 254.372 105.887 253.506 105.42C252.652 104.953 251.986 104.313 251.506 103.5C251.039 102.687 250.806 101.753 250.806 100.7C250.806 99.6467 251.032 98.7133 251.486 97.9C251.952 97.0867 252.586 96.4533 253.386 96C254.199 95.5333 255.112 95.3 256.126 95.3C257.152 95.3 258.059 95.5267 258.846 95.98C259.632 96.4333 260.246 97.0733 260.686 97.9C261.139 98.7133 261.366 99.6667 261.366 100.76C261.366 100.84 261.359 100.933 261.346 101.04C261.346 101.147 261.339 101.247 261.326 101.34H252.306V99.96H260.326L259.546 100.44C259.559 99.76 259.419 99.1533 259.126 98.62C258.832 98.0867 258.426 97.6733 257.906 97.38C257.399 97.0733 256.806 96.92 256.126 96.92C255.459 96.92 254.866 97.0733 254.346 97.38C253.826 97.6733 253.419 98.0933 253.126 98.64C252.832 99.1733 252.686 99.7867 252.686 100.48V100.8C252.686 101.507 252.846 102.14 253.166 102.7C253.499 103.247 253.959 103.673 254.546 103.98C255.132 104.287 255.806 104.44 256.566 104.44C257.192 104.44 257.759 104.333 258.266 104.12C258.786 103.907 259.239 103.587 259.626 103.16L260.686 104.4C260.206 104.96 259.606 105.387 258.886 105.68C258.179 105.973 257.386 106.12 256.506 106.12ZM269.863 110C269.356 110 268.863 109.913 268.383 109.74C267.903 109.58 267.49 109.34 267.143 109.02L267.963 107.58C268.23 107.833 268.523 108.027 268.843 108.16C269.163 108.293 269.503 108.36 269.863 108.36C270.33 108.36 270.716 108.24 271.023 108C271.33 107.76 271.616 107.333 271.883 106.72L272.543 105.26L272.743 105.02L276.903 95.4H278.783L273.643 107.06C273.336 107.807 272.99 108.393 272.603 108.82C272.23 109.247 271.816 109.547 271.363 109.72C270.91 109.907 270.41 110 269.863 110ZM272.383 106.34L267.543 95.4H269.543L273.663 104.84L272.383 106.34ZM284.822 106.12C283.755 106.12 282.809 105.887 281.982 105.42C281.155 104.953 280.502 104.313 280.022 103.5C279.542 102.673 279.302 101.74 279.302 100.7C279.302 99.6467 279.542 98.7133 280.022 97.9C280.502 97.0867 281.155 96.4533 281.982 96C282.809 95.5333 283.755 95.3 284.822 95.3C285.875 95.3 286.815 95.5333 287.642 96C288.482 96.4533 289.135 97.0867 289.602 97.9C290.082 98.7 290.322 99.6333 290.322 100.7C290.322 101.753 290.082 102.687 289.602 103.5C289.135 104.313 288.482 104.953 287.642 105.42C286.815 105.887 285.875 106.12 284.822 106.12ZM284.822 104.44C285.502 104.44 286.109 104.287 286.642 103.98C287.189 103.673 287.615 103.24 287.922 102.68C288.229 102.107 288.382 101.447 288.382 100.7C288.382 99.94 288.229 99.2867 287.922 98.74C287.615 98.18 287.189 97.7467 286.642 97.44C286.109 97.1333 285.502 96.98 284.822 96.98C284.142 96.98 283.535 97.1333 283.002 97.44C282.469 97.7467 282.042 98.18 281.722 98.74C281.402 99.2867 281.242 99.94 281.242 100.7C281.242 101.447 281.402 102.107 281.722 102.68C282.042 103.24 282.469 103.673 283.002 103.98C283.535 104.287 284.142 104.44 284.822 104.44ZM297.437 106.12C296.531 106.12 295.731 105.953 295.037 105.62C294.357 105.287 293.824 104.78 293.437 104.1C293.064 103.407 292.877 102.54 292.877 101.5V95.4H294.797V101.28C294.797 102.32 295.044 103.1 295.537 103.62C296.044 104.14 296.751 104.4 297.657 104.4C298.324 104.4 298.904 104.267 299.397 104C299.891 103.72 300.271 103.32 300.537 102.8C300.804 102.267 300.937 101.627 300.937 100.88V95.4H302.857V106H301.037V103.14L301.337 103.9C300.991 104.607 300.471 105.153 299.777 105.54C299.084 105.927 298.304 106.12 297.437 106.12ZM311.883 106V95.4H313.723V98.28L313.543 97.56C313.837 96.8267 314.33 96.2667 315.023 95.88C315.717 95.4933 316.57 95.3 317.583 95.3V97.16C317.503 97.1467 317.423 97.14 317.343 97.14C317.277 97.14 317.21 97.14 317.143 97.14C316.117 97.14 315.303 97.4467 314.703 98.06C314.103 98.6733 313.803 99.56 313.803 100.72V106H311.883ZM324.572 106.12C323.439 106.12 322.439 105.887 321.572 105.42C320.719 104.953 320.052 104.313 319.572 103.5C319.106 102.687 318.872 101.753 318.872 100.7C318.872 99.6467 319.099 98.7133 319.552 97.9C320.019 97.0867 320.652 96.4533 321.452 96C322.266 95.5333 323.179 95.3 324.192 95.3C325.219 95.3 326.126 95.5267 326.912 95.98C327.699 96.4333 328.312 97.0733 328.752 97.9C329.206 98.7133 329.432 99.6667 329.432 100.76C329.432 100.84 329.426 100.933 329.412 101.04C329.412 101.147 329.406 101.247 329.392 101.34H320.372V99.96H328.392L327.612 100.44C327.626 99.76 327.486 99.1533 327.192 98.62C326.899 98.0867 326.492 97.6733 325.972 97.38C325.466 97.0733 324.872 96.92 324.192 96.92C323.526 96.92 322.932 97.0733 322.412 97.38C321.892 97.6733 321.486 98.0933 321.192 98.64C320.899 99.1733 320.752 99.7867 320.752 100.48V100.8C320.752 101.507 320.912 102.14 321.232 102.7C321.566 103.247 322.026 103.673 322.612 103.98C323.199 104.287 323.872 104.44 324.632 104.44C325.259 104.44 325.826 104.333 326.332 104.12C326.852 103.907 327.306 103.587 327.692 103.16L328.752 104.4C328.272 104.96 327.672 105.387 326.952 105.68C326.246 105.973 325.452 106.12 324.572 106.12ZM336.478 106.12C335.452 106.12 334.532 105.893 333.718 105.44C332.918 104.987 332.285 104.353 331.818 103.54C331.352 102.727 331.118 101.78 331.118 100.7C331.118 99.62 331.352 98.68 331.818 97.88C332.285 97.0667 332.918 96.4333 333.718 95.98C334.532 95.5267 335.452 95.3 336.478 95.3C337.398 95.3 338.218 95.5 338.938 95.9C339.658 96.3 340.225 96.9 340.638 97.7C341.065 98.5 341.278 99.5 341.278 100.7C341.278 101.9 341.058 102.9 340.618 103.7C340.192 104.5 339.618 105.107 338.898 105.52C338.178 105.92 337.372 106.12 336.478 106.12ZM336.638 104.44C337.305 104.44 337.905 104.287 338.438 103.98C338.985 103.673 339.412 103.24 339.718 102.68C340.038 102.107 340.198 101.447 340.198 100.7C340.198 99.94 340.038 99.2867 339.718 98.74C339.412 98.18 338.985 97.7467 338.438 97.44C337.905 97.1333 337.305 96.98 336.638 96.98C335.958 96.98 335.352 97.1333 334.818 97.44C334.285 97.7467 333.858 98.18 333.538 98.74C333.218 99.2867 333.058 99.94 333.058 100.7C333.058 101.447 333.218 102.107 333.538 102.68C333.858 103.24 334.285 103.673 334.818 103.98C335.352 104.287 335.958 104.44 336.638 104.44ZM340.178 109.88V103.18L340.378 100.72L340.258 98.26V95.4H342.098V109.88H340.178ZM350.191 106.12C349.284 106.12 348.484 105.953 347.791 105.62C347.111 105.287 346.578 104.78 346.191 104.1C345.818 103.407 345.631 102.54 345.631 101.5V95.4H347.551V101.28C347.551 102.32 347.798 103.1 348.291 103.62C348.798 104.14 349.504 104.4 350.411 104.4C351.078 104.4 351.658 104.267 352.151 104C352.644 103.72 353.024 103.32 353.291 102.8C353.558 102.267 353.691 101.627 353.691 100.88V95.4H355.611V106H353.791V103.14L354.091 103.9C353.744 104.607 353.224 105.153 352.531 105.54C351.838 105.927 351.058 106.12 350.191 106.12ZM363.986 106.12C362.853 106.12 361.853 105.887 360.986 105.42C360.133 104.953 359.466 104.313 358.986 103.5C358.52 102.687 358.286 101.753 358.286 100.7C358.286 99.6467 358.513 98.7133 358.966 97.9C359.433 97.0867 360.066 96.4533 360.866 96C361.68 95.5333 362.593 95.3 363.606 95.3C364.633 95.3 365.54 95.5267 366.326 95.98C367.113 96.4333 367.726 97.0733 368.166 97.9C368.62 98.7133 368.846 99.6667 368.846 100.76C368.846 100.84 368.84 100.933 368.826 101.04C368.826 101.147 368.82 101.247 368.806 101.34H359.786V99.96H367.806L367.026 100.44C367.04 99.76 366.9 99.1533 366.606 98.62C366.313 98.0867 365.906 97.6733 365.386 97.38C364.88 97.0733 364.286 96.92 363.606 96.92C362.94 96.92 362.346 97.0733 361.826 97.38C361.306 97.6733 360.9 98.0933 360.606 98.64C360.313 99.1733 360.166 99.7867 360.166 100.48V100.8C360.166 101.507 360.326 102.14 360.646 102.7C360.98 103.247 361.44 103.673 362.026 103.98C362.613 104.287 363.286 104.44 364.046 104.44C364.673 104.44 365.24 104.333 365.746 104.12C366.266 103.907 366.72 103.587 367.106 103.16L368.166 104.4C367.686 104.96 367.086 105.387 366.366 105.68C365.66 105.973 364.866 106.12 363.986 106.12ZM374.552 106.12C373.672 106.12 372.832 106 372.032 105.76C371.246 105.52 370.626 105.227 370.172 104.88L370.972 103.36C371.426 103.667 371.986 103.927 372.652 104.14C373.319 104.353 373.999 104.46 374.692 104.46C375.586 104.46 376.226 104.333 376.612 104.08C377.012 103.827 377.212 103.473 377.212 103.02C377.212 102.687 377.092 102.427 376.852 102.24C376.612 102.053 376.292 101.913 375.892 101.82C375.506 101.727 375.072 101.647 374.592 101.58C374.112 101.5 373.632 101.407 373.152 101.3C372.672 101.18 372.232 101.02 371.832 100.82C371.432 100.607 371.112 100.32 370.872 99.96C370.632 99.5867 370.512 99.0933 370.512 98.48C370.512 97.84 370.692 97.28 371.052 96.8C371.412 96.32 371.919 95.9533 372.572 95.7C373.239 95.4333 374.026 95.3 374.932 95.3C375.626 95.3 376.326 95.3867 377.032 95.56C377.752 95.72 378.339 95.9533 378.792 96.26L377.972 97.78C377.492 97.46 376.992 97.24 376.472 97.12C375.952 97 375.432 96.94 374.912 96.94C374.072 96.94 373.446 97.08 373.032 97.36C372.619 97.6267 372.412 97.9733 372.412 98.4C372.412 98.76 372.532 99.04 372.772 99.24C373.026 99.4267 373.346 99.5733 373.732 99.68C374.132 99.7867 374.572 99.88 375.052 99.96C375.532 100.027 376.012 100.12 376.492 100.24C376.972 100.347 377.406 100.5 377.792 100.7C378.192 100.9 378.512 101.18 378.752 101.54C379.006 101.9 379.132 102.38 379.132 102.98C379.132 103.62 378.946 104.173 378.572 104.64C378.199 105.107 377.672 105.473 376.992 105.74C376.312 105.993 375.499 106.12 374.552 106.12ZM385.172 106.12C384.105 106.12 383.279 105.833 382.692 105.26C382.105 104.687 381.812 103.867 381.812 102.8V93.08H383.732V102.72C383.732 103.293 383.872 103.733 384.152 104.04C384.445 104.347 384.859 104.5 385.392 104.5C385.992 104.5 386.492 104.333 386.892 104L387.492 105.38C387.199 105.633 386.845 105.82 386.432 105.94C386.032 106.06 385.612 106.12 385.172 106.12ZM380.012 96.98V95.4H386.772V96.98H380.012ZM394.182 106.12C393.048 106.12 392.048 105.887 391.182 105.42C390.328 104.953 389.662 104.313 389.182 103.5C388.715 102.687 388.482 101.753 388.482 100.7C388.482 99.6467 388.708 98.7133 389.162 97.9C389.628 97.0867 390.262 96.4533 391.062 96C391.875 95.5333 392.788 95.3 393.802 95.3C394.828 95.3 395.735 95.5267 396.522 95.98C397.308 96.4333 397.922 97.0733 398.362 97.9C398.815 98.7133 399.042 99.6667 399.042 100.76C399.042 100.84 399.035 100.933 399.022 101.04C399.022 101.147 399.015 101.247 399.002 101.34H389.982V99.96H398.002L397.222 100.44C397.235 99.76 397.095 99.1533 396.802 98.62C396.508 98.0867 396.102 97.6733 395.582 97.38C395.075 97.0733 394.482 96.92 393.802 96.92C393.135 96.92 392.542 97.0733 392.022 97.38C391.502 97.6733 391.095 98.0933 390.802 98.64C390.508 99.1733 390.362 99.7867 390.362 100.48V100.8C390.362 101.507 390.522 102.14 390.842 102.7C391.175 103.247 391.635 103.673 392.222 103.98C392.808 104.287 393.482 104.44 394.242 104.44C394.868 104.44 395.435 104.333 395.942 104.12C396.462 103.907 396.915 103.587 397.302 103.16L398.362 104.4C397.882 104.96 397.282 105.387 396.562 105.68C395.855 105.973 395.062 106.12 394.182 106.12ZM406.088 106.12C405.061 106.12 404.141 105.893 403.328 105.44C402.528 104.987 401.894 104.353 401.428 103.54C400.961 102.727 400.728 101.78 400.728 100.7C400.728 99.62 400.961 98.68 401.428 97.88C401.894 97.0667 402.528 96.4333 403.328 95.98C404.141 95.5267 405.061 95.3 406.088 95.3C406.981 95.3 407.788 95.5 408.508 95.9C409.228 96.3 409.801 96.9 410.228 97.7C410.668 98.5 410.888 99.5 410.888 100.7C410.888 101.9 410.674 102.9 410.248 103.7C409.834 104.5 409.268 105.107 408.548 105.52C407.828 105.92 407.008 106.12 406.088 106.12ZM406.248 104.44C406.914 104.44 407.514 104.287 408.048 103.98C408.594 103.673 409.021 103.24 409.328 102.68C409.648 102.107 409.808 101.447 409.808 100.7C409.808 99.94 409.648 99.2867 409.328 98.74C409.021 98.18 408.594 97.7467 408.048 97.44C407.514 97.1333 406.914 96.98 406.248 96.98C405.568 96.98 404.961 97.1333 404.428 97.44C403.894 97.7467 403.468 98.18 403.148 98.74C402.828 99.2867 402.668 99.94 402.668 100.7C402.668 101.447 402.828 102.107 403.148 102.68C403.468 103.24 403.894 103.673 404.428 103.98C404.961 104.287 405.568 104.44 406.248 104.44ZM409.868 106V103.14L409.988 100.68L409.788 98.22V91.16H411.708V106H409.868ZM425.332 106.12C424.252 106.12 423.285 105.887 422.432 105.42C421.592 104.953 420.932 104.313 420.452 103.5C419.972 102.687 419.732 101.753 419.732 100.7C419.732 99.6467 419.972 98.7133 420.452 97.9C420.932 97.0867 421.592 96.4533 422.432 96C423.285 95.5333 424.252 95.3 425.332 95.3C426.292 95.3 427.145 95.4933 427.892 95.88C428.652 96.2533 429.238 96.8133 429.652 97.56L428.192 98.5C427.845 97.98 427.418 97.6 426.912 97.36C426.418 97.1067 425.885 96.98 425.312 96.98C424.618 96.98 423.998 97.1333 423.452 97.44C422.905 97.7467 422.472 98.18 422.152 98.74C421.832 99.2867 421.672 99.94 421.672 100.7C421.672 101.46 421.832 102.12 422.152 102.68C422.472 103.24 422.905 103.673 423.452 103.98C423.998 104.287 424.618 104.44 425.312 104.44C425.885 104.44 426.418 104.32 426.912 104.08C427.418 103.827 427.845 103.44 428.192 102.92L429.652 103.84C429.238 104.573 428.652 105.14 427.892 105.54C427.145 105.927 426.292 106.12 425.332 106.12ZM436.521 106.12C435.454 106.12 434.508 105.887 433.681 105.42C432.854 104.953 432.201 104.313 431.721 103.5C431.241 102.673 431.001 101.74 431.001 100.7C431.001 99.6467 431.241 98.7133 431.721 97.9C432.201 97.0867 432.854 96.4533 433.681 96C434.508 95.5333 435.454 95.3 436.521 95.3C437.574 95.3 438.514 95.5333 439.341 96C440.181 96.4533 440.834 97.0867 441.301 97.9C441.781 98.7 442.021 99.6333 442.021 100.7C442.021 101.753 441.781 102.687 441.301 103.5C440.834 104.313 440.181 104.953 439.341 105.42C438.514 105.887 437.574 106.12 436.521 106.12ZM436.521 104.44C437.201 104.44 437.808 104.287 438.341 103.98C438.888 103.673 439.314 103.24 439.621 102.68C439.928 102.107 440.081 101.447 440.081 100.7C440.081 99.94 439.928 99.2867 439.621 98.74C439.314 98.18 438.888 97.7467 438.341 97.44C437.808 97.1333 437.201 96.98 436.521 96.98C435.841 96.98 435.234 97.1333 434.701 97.44C434.168 97.7467 433.741 98.18 433.421 98.74C433.101 99.2867 432.941 99.94 432.941 100.7C432.941 101.447 433.101 102.107 433.421 102.68C433.741 103.24 434.168 103.673 434.701 103.98C435.234 104.287 435.841 104.44 436.521 104.44ZM449.136 106.12C448.23 106.12 447.43 105.953 446.736 105.62C446.056 105.287 445.523 104.78 445.136 104.1C444.763 103.407 444.576 102.54 444.576 101.5V95.4H446.496V101.28C446.496 102.32 446.743 103.1 447.236 103.62C447.743 104.14 448.45 104.4 449.356 104.4C450.023 104.4 450.603 104.267 451.096 104C451.59 103.72 451.97 103.32 452.236 102.8C452.503 102.267 452.636 101.627 452.636 100.88V95.4H454.556V106H452.736V103.14L453.036 103.9C452.69 104.607 452.17 105.153 451.476 105.54C450.783 105.927 450.003 106.12 449.136 106.12ZM458.212 106V91.16H460.132V106H458.212ZM468.178 106.12C467.151 106.12 466.231 105.893 465.418 105.44C464.618 104.987 463.984 104.353 463.518 103.54C463.051 102.727 462.818 101.78 462.818 100.7C462.818 99.62 463.051 98.68 463.518 97.88C463.984 97.0667 464.618 96.4333 465.418 95.98C466.231 95.5267 467.151 95.3 468.178 95.3C469.071 95.3 469.878 95.5 470.598 95.9C471.318 96.3 471.891 96.9 472.318 97.7C472.758 98.5 472.978 99.5 472.978 100.7C472.978 101.9 472.764 102.9 472.338 103.7C471.924 104.5 471.358 105.107 470.638 105.52C469.918 105.92 469.098 106.12 468.178 106.12ZM468.338 104.44C469.004 104.44 469.604 104.287 470.138 103.98C470.684 103.673 471.111 103.24 471.418 102.68C471.738 102.107 471.898 101.447 471.898 100.7C471.898 99.94 471.738 99.2867 471.418 98.74C471.111 98.18 470.684 97.7467 470.138 97.44C469.604 97.1333 469.004 96.98 468.338 96.98C467.658 96.98 467.051 97.1333 466.518 97.44C465.984 97.7467 465.558 98.18 465.238 98.74C464.918 99.2867 464.758 99.94 464.758 100.7C464.758 101.447 464.918 102.107 465.238 102.68C465.558 103.24 465.984 103.673 466.518 103.98C467.051 104.287 467.658 104.44 468.338 104.44ZM471.958 106V103.14L472.078 100.68L471.878 98.22V91.16H473.798V106H471.958ZM488.461 95.3C489.328 95.3 490.088 95.4667 490.741 95.8C491.408 96.1333 491.928 96.64 492.301 97.32C492.675 98 492.861 98.86 492.861 99.9V106H490.941V100.12C490.941 99.0933 490.688 98.32 490.181 97.8C489.688 97.28 488.988 97.02 488.081 97.02C487.401 97.02 486.808 97.1533 486.301 97.42C485.795 97.6867 485.401 98.08 485.121 98.6C484.855 99.12 484.721 99.7667 484.721 100.54V106H482.801V95.4H484.641V98.26L484.341 97.5C484.688 96.8067 485.221 96.2667 485.941 95.88C486.661 95.4933 487.501 95.3 488.461 95.3ZM500.955 106.12C499.888 106.12 498.941 105.887 498.115 105.42C497.288 104.953 496.635 104.313 496.155 103.5C495.675 102.673 495.435 101.74 495.435 100.7C495.435 99.6467 495.675 98.7133 496.155 97.9C496.635 97.0867 497.288 96.4533 498.115 96C498.941 95.5333 499.888 95.3 500.955 95.3C502.008 95.3 502.948 95.5333 503.775 96C504.615 96.4533 505.268 97.0867 505.735 97.9C506.215 98.7 506.455 99.6333 506.455 100.7C506.455 101.753 506.215 102.687 505.735 103.5C505.268 104.313 504.615 104.953 503.775 105.42C502.948 105.887 502.008 106.12 500.955 106.12ZM500.955 104.44C501.635 104.44 502.241 104.287 502.775 103.98C503.321 103.673 503.748 103.24 504.055 102.68C504.361 102.107 504.515 101.447 504.515 100.7C504.515 99.94 504.361 99.2867 504.055 98.74C503.748 98.18 503.321 97.7467 502.775 97.44C502.241 97.1333 501.635 96.98 500.955 96.98C500.275 96.98 499.668 97.1333 499.135 97.44C498.601 97.7467 498.175 98.18 497.855 98.74C497.535 99.2867 497.375 99.94 497.375 100.7C497.375 101.447 497.535 102.107 497.855 102.68C498.175 103.24 498.601 103.673 499.135 103.98C499.668 104.287 500.275 104.44 500.955 104.44ZM512.75 106.12C511.683 106.12 510.857 105.833 510.27 105.26C509.683 104.687 509.39 103.867 509.39 102.8V93.08H511.31V102.72C511.31 103.293 511.45 103.733 511.73 104.04C512.023 104.347 512.437 104.5 512.97 104.5C513.57 104.5 514.07 104.333 514.47 104L515.07 105.38C514.777 105.633 514.423 105.82 514.01 105.94C513.61 106.06 513.19 106.12 512.75 106.12ZM507.59 96.98V95.4H514.35V96.98H507.59ZM528.382 106.12C527.476 106.12 526.656 105.92 525.922 105.52C525.202 105.107 524.629 104.5 524.202 103.7C523.789 102.9 523.582 101.9 523.582 100.7C523.582 99.5 523.796 98.5 524.222 97.7C524.662 96.9 525.242 96.3 525.962 95.9C526.696 95.5 527.502 95.3 528.382 95.3C529.422 95.3 530.342 95.5267 531.142 95.98C531.942 96.4333 532.576 97.0667 533.042 97.88C533.509 98.68 533.742 99.62 533.742 100.7C533.742 101.78 533.509 102.727 533.042 103.54C532.576 104.353 531.942 104.987 531.142 105.44C530.342 105.893 529.422 106.12 528.382 106.12ZM522.762 106V91.16H524.682V98.22L524.482 100.68L524.602 103.14V106H522.762ZM528.222 104.44C528.902 104.44 529.509 104.287 530.042 103.98C530.589 103.673 531.016 103.24 531.322 102.68C531.642 102.107 531.802 101.447 531.802 100.7C531.802 99.94 531.642 99.2867 531.322 98.74C531.016 98.18 530.589 97.7467 530.042 97.44C529.509 97.1333 528.902 96.98 528.222 96.98C527.556 96.98 526.949 97.1333 526.402 97.44C525.869 97.7467 525.442 98.18 525.122 98.74C524.816 99.2867 524.662 99.94 524.662 100.7C524.662 101.447 524.816 102.107 525.122 102.68C525.442 103.24 525.869 103.673 526.402 103.98C526.949 104.287 527.556 104.44 528.222 104.44ZM541.115 106.12C539.982 106.12 538.982 105.887 538.115 105.42C537.262 104.953 536.595 104.313 536.115 103.5C535.649 102.687 535.415 101.753 535.415 100.7C535.415 99.6467 535.642 98.7133 536.095 97.9C536.562 97.0867 537.195 96.4533 537.995 96C538.809 95.5333 539.722 95.3 540.735 95.3C541.762 95.3 542.669 95.5267 543.455 95.98C544.242 96.4333 544.855 97.0733 545.295 97.9C545.749 98.7133 545.975 99.6667 545.975 100.76C545.975 100.84 545.969 100.933 545.955 101.04C545.955 101.147 545.949 101.247 545.935 101.34H536.915V99.96H544.935L544.155 100.44C544.169 99.76 544.029 99.1533 543.735 98.62C543.442 98.0867 543.035 97.6733 542.515 97.38C542.009 97.0733 541.415 96.92 540.735 96.92C540.069 96.92 539.475 97.0733 538.955 97.38C538.435 97.6733 538.029 98.0933 537.735 98.64C537.442 99.1733 537.295 99.7867 537.295 100.48V100.8C537.295 101.507 537.455 102.14 537.775 102.7C538.109 103.247 538.569 103.673 539.155 103.98C539.742 104.287 540.415 104.44 541.175 104.44C541.802 104.44 542.369 104.333 542.875 104.12C543.395 103.907 543.849 103.587 544.235 103.16L545.295 104.4C544.815 104.96 544.215 105.387 543.495 105.68C542.789 105.973 541.995 106.12 541.115 106.12ZM554.292 106V94.46C554.292 93.42 554.592 92.5933 555.192 91.98C555.806 91.3533 556.672 91.04 557.792 91.04C558.206 91.04 558.599 91.0933 558.972 91.2C559.359 91.2933 559.686 91.4467 559.952 91.66L559.372 93.12C559.172 92.96 558.946 92.84 558.692 92.76C558.439 92.6667 558.172 92.62 557.892 92.62C557.332 92.62 556.906 92.78 556.612 93.1C556.319 93.4067 556.172 93.8667 556.172 94.48V95.9L556.212 96.78V106H554.292ZM552.492 96.98V95.4H559.252V96.98H552.492ZM565.447 106.12C564.38 106.12 563.434 105.887 562.607 105.42C561.78 104.953 561.127 104.313 560.647 103.5C560.167 102.673 559.927 101.74 559.927 100.7C559.927 99.6467 560.167 98.7133 560.647 97.9C561.127 97.0867 561.78 96.4533 562.607 96C563.434 95.5333 564.38 95.3 565.447 95.3C566.5 95.3 567.44 95.5333 568.267 96C569.107 96.4533 569.76 97.0867 570.227 97.9C570.707 98.7 570.947 99.6333 570.947 100.7C570.947 101.753 570.707 102.687 570.227 103.5C569.76 104.313 569.107 104.953 568.267 105.42C567.44 105.887 566.5 106.12 565.447 106.12ZM565.447 104.44C566.127 104.44 566.734 104.287 567.267 103.98C567.814 103.673 568.24 103.24 568.547 102.68C568.854 102.107 569.007 101.447 569.007 100.7C569.007 99.94 568.854 99.2867 568.547 98.74C568.24 98.18 567.814 97.7467 567.267 97.44C566.734 97.1333 566.127 96.98 565.447 96.98C564.767 96.98 564.16 97.1333 563.627 97.44C563.094 97.7467 562.667 98.18 562.347 98.74C562.027 99.2867 561.867 99.94 561.867 100.7C561.867 101.447 562.027 102.107 562.347 102.68C562.667 103.24 563.094 103.673 563.627 103.98C564.16 104.287 564.767 104.44 565.447 104.44ZM578.062 106.12C577.156 106.12 576.356 105.953 575.662 105.62C574.982 105.287 574.449 104.78 574.062 104.1C573.689 103.407 573.502 102.54 573.502 101.5V95.4H575.422V101.28C575.422 102.32 575.669 103.1 576.162 103.62C576.669 104.14 577.376 104.4 578.282 104.4C578.949 104.4 579.529 104.267 580.022 104C580.516 103.72 580.896 103.32 581.162 102.8C581.429 102.267 581.562 101.627 581.562 100.88V95.4H583.482V106H581.662V103.14L581.962 103.9C581.616 104.607 581.096 105.153 580.402 105.54C579.709 105.927 578.929 106.12 578.062 106.12ZM592.797 95.3C593.664 95.3 594.424 95.4667 595.077 95.8C595.744 96.1333 596.264 96.64 596.637 97.32C597.011 98 597.197 98.86 597.197 99.9V106H595.277V100.12C595.277 99.0933 595.024 98.32 594.517 97.8C594.024 97.28 593.324 97.02 592.417 97.02C591.737 97.02 591.144 97.1533 590.637 97.42C590.131 97.6867 589.737 98.08 589.457 98.6C589.191 99.12 589.057 99.7667 589.057 100.54V106H587.137V95.4H588.977V98.26L588.677 97.5C589.024 96.8067 589.557 96.2667 590.277 95.88C590.997 95.4933 591.837 95.3 592.797 95.3ZM605.131 106.12C604.104 106.12 603.184 105.893 602.371 105.44C601.571 104.987 600.937 104.353 600.471 103.54C600.004 102.727 599.771 101.78 599.771 100.7C599.771 99.62 600.004 98.68 600.471 97.88C600.937 97.0667 601.571 96.4333 602.371 95.98C603.184 95.5267 604.104 95.3 605.131 95.3C606.024 95.3 606.831 95.5 607.551 95.9C608.271 96.3 608.844 96.9 609.271 97.7C609.711 98.5 609.931 99.5 609.931 100.7C609.931 101.9 609.717 102.9 609.291 103.7C608.877 104.5 608.311 105.107 607.591 105.52C606.871 105.92 606.051 106.12 605.131 106.12ZM605.291 104.44C605.957 104.44 606.557 104.287 607.091 103.98C607.637 103.673 608.064 103.24 608.371 102.68C608.691 102.107 608.851 101.447 608.851 100.7C608.851 99.94 608.691 99.2867 608.371 98.74C608.064 98.18 607.637 97.7467 607.091 97.44C606.557 97.1333 605.957 96.98 605.291 96.98C604.611 96.98 604.004 97.1333 603.471 97.44C602.937 97.7467 602.511 98.18 602.191 98.74C601.871 99.2867 601.711 99.94 601.711 100.7C601.711 101.447 601.871 102.107 602.191 102.68C602.511 103.24 602.937 103.673 603.471 103.98C604.004 104.287 604.611 104.44 605.291 104.44ZM608.911 106V103.14L609.031 100.68L608.831 98.22V91.16H610.751V106H608.911ZM614.843 106.12C614.47 106.12 614.15 105.993 613.883 105.74C613.617 105.473 613.483 105.14 613.483 104.74C613.483 104.34 613.617 104.013 613.883 103.76C614.15 103.507 614.47 103.38 614.843 103.38C615.203 103.38 615.51 103.507 615.763 103.76C616.03 104.013 616.163 104.34 616.163 104.74C616.163 105.14 616.03 105.473 615.763 105.74C615.51 105.993 615.203 106.12 614.843 106.12ZM164.908 132V118H170.368C171.594 118 172.641 118.193 173.508 118.58C174.374 118.967 175.041 119.527 175.508 120.26C175.974 120.993 176.208 121.867 176.208 122.88C176.208 123.893 175.974 124.767 175.508 125.5C175.041 126.22 174.374 126.78 173.508 127.18C172.641 127.567 171.594 127.76 170.368 127.76H166.008L166.908 126.82V132H164.908ZM166.908 127.02L166.008 126.02H170.308C171.588 126.02 172.554 125.747 173.208 125.2C173.874 124.653 174.208 123.88 174.208 122.88C174.208 121.88 173.874 121.107 173.208 120.56C172.554 120.013 171.588 119.74 170.308 119.74H166.008L166.908 118.74V127.02ZM179.061 132V117.16H180.981V132H179.061ZM189.367 132.12C188.234 132.12 187.234 131.887 186.367 131.42C185.514 130.953 184.847 130.313 184.367 129.5C183.9 128.687 183.667 127.753 183.667 126.7C183.667 125.647 183.894 124.713 184.347 123.9C184.814 123.087 185.447 122.453 186.247 122C187.06 121.533 187.974 121.3 188.987 121.3C190.014 121.3 190.92 121.527 191.707 121.98C192.494 122.433 193.107 123.073 193.547 123.9C194 124.713 194.227 125.667 194.227 126.76C194.227 126.84 194.22 126.933 194.207 127.04C194.207 127.147 194.2 127.247 194.187 127.34H185.167V125.96H193.187L192.407 126.44C192.42 125.76 192.28 125.153 191.987 124.62C191.694 124.087 191.287 123.673 190.767 123.38C190.26 123.073 189.667 122.92 188.987 122.92C188.32 122.92 187.727 123.073 187.207 123.38C186.687 123.673 186.28 124.093 185.987 124.64C185.694 125.173 185.547 125.787 185.547 126.48V126.8C185.547 127.507 185.707 128.14 186.027 128.7C186.36 129.247 186.82 129.673 187.407 129.98C187.994 130.287 188.667 130.44 189.427 130.44C190.054 130.44 190.62 130.333 191.127 130.12C191.647 129.907 192.1 129.587 192.487 129.16L193.547 130.4C193.067 130.96 192.467 131.387 191.747 131.68C191.04 131.973 190.247 132.12 189.367 132.12ZM203.18 132V129.76L203.08 129.34V125.52C203.08 124.707 202.84 124.08 202.36 123.64C201.894 123.187 201.187 122.96 200.24 122.96C199.614 122.96 199 123.067 198.4 123.28C197.8 123.48 197.294 123.753 196.88 124.1L196.08 122.66C196.627 122.22 197.28 121.887 198.04 121.66C198.814 121.42 199.62 121.3 200.46 121.3C201.914 121.3 203.034 121.653 203.82 122.36C204.607 123.067 205 124.147 205 125.6V132H203.18ZM199.7 132.12C198.914 132.12 198.22 131.987 197.62 131.72C197.034 131.453 196.58 131.087 196.26 130.62C195.94 130.14 195.78 129.6 195.78 129C195.78 128.427 195.914 127.907 196.18 127.44C196.46 126.973 196.907 126.6 197.52 126.32C198.147 126.04 198.987 125.9 200.04 125.9H203.4V127.28H200.12C199.16 127.28 198.514 127.44 198.18 127.76C197.847 128.08 197.68 128.467 197.68 128.92C197.68 129.44 197.887 129.86 198.3 130.18C198.714 130.487 199.287 130.64 200.02 130.64C200.74 130.64 201.367 130.48 201.9 130.16C202.447 129.84 202.84 129.373 203.08 128.76L203.46 130.08C203.207 130.707 202.76 131.207 202.12 131.58C201.48 131.94 200.674 132.12 199.7 132.12ZM211.593 132.12C210.713 132.12 209.873 132 209.073 131.76C208.287 131.52 207.667 131.227 207.213 130.88L208.013 129.36C208.467 129.667 209.027 129.927 209.693 130.14C210.36 130.353 211.04 130.46 211.733 130.46C212.627 130.46 213.267 130.333 213.653 130.08C214.053 129.827 214.253 129.473 214.253 129.02C214.253 128.687 214.133 128.427 213.893 128.24C213.653 128.053 213.333 127.913 212.933 127.82C212.547 127.727 212.113 127.647 211.633 127.58C211.153 127.5 210.673 127.407 210.193 127.3C209.713 127.18 209.273 127.02 208.873 126.82C208.473 126.607 208.153 126.32 207.913 125.96C207.673 125.587 207.553 125.093 207.553 124.48C207.553 123.84 207.733 123.28 208.093 122.8C208.453 122.32 208.96 121.953 209.613 121.7C210.28 121.433 211.067 121.3 211.973 121.3C212.667 121.3 213.367 121.387 214.073 121.56C214.793 121.72 215.38 121.953 215.833 122.26L215.013 123.78C214.533 123.46 214.033 123.24 213.513 123.12C212.993 123 212.473 122.94 211.953 122.94C211.113 122.94 210.487 123.08 210.073 123.36C209.66 123.627 209.453 123.973 209.453 124.4C209.453 124.76 209.573 125.04 209.813 125.24C210.067 125.427 210.387 125.573 210.773 125.68C211.173 125.787 211.613 125.88 212.093 125.96C212.573 126.027 213.053 126.12 213.533 126.24C214.013 126.347 214.447 126.5 214.833 126.7C215.233 126.9 215.553 127.18 215.793 127.54C216.047 127.9 216.173 128.38 216.173 128.98C216.173 129.62 215.987 130.173 215.613 130.64C215.24 131.107 214.713 131.473 214.033 131.74C213.353 131.993 212.54 132.12 211.593 132.12ZM223.293 132.12C222.16 132.12 221.16 131.887 220.293 131.42C219.44 130.953 218.773 130.313 218.293 129.5C217.826 128.687 217.593 127.753 217.593 126.7C217.593 125.647 217.82 124.713 218.273 123.9C218.74 123.087 219.373 122.453 220.173 122C220.986 121.533 221.9 121.3 222.913 121.3C223.94 121.3 224.846 121.527 225.633 121.98C226.42 122.433 227.033 123.073 227.473 123.9C227.926 124.713 228.153 125.667 228.153 126.76C228.153 126.84 228.146 126.933 228.133 127.04C228.133 127.147 228.126 127.247 228.113 127.34H219.093V125.96H227.113L226.333 126.44C226.346 125.76 226.206 125.153 225.913 124.62C225.62 124.087 225.213 123.673 224.693 123.38C224.186 123.073 223.593 122.92 222.913 122.92C222.246 122.92 221.653 123.073 221.133 123.38C220.613 123.673 220.206 124.093 219.913 124.64C219.62 125.173 219.473 125.787 219.473 126.48V126.8C219.473 127.507 219.633 128.14 219.953 128.7C220.286 129.247 220.746 129.673 221.333 129.98C221.92 130.287 222.593 130.44 223.353 130.44C223.98 130.44 224.546 130.333 225.053 130.12C225.573 129.907 226.026 129.587 226.413 129.16L227.473 130.4C226.993 130.96 226.393 131.387 225.673 131.68C224.966 131.973 224.173 132.12 223.293 132.12ZM240.83 136C239.857 136 238.91 135.86 237.99 135.58C237.083 135.313 236.343 134.927 235.77 134.42L236.69 132.94C237.183 133.367 237.79 133.7 238.51 133.94C239.23 134.193 239.983 134.32 240.77 134.32C242.023 134.32 242.943 134.027 243.53 133.44C244.117 132.853 244.41 131.96 244.41 130.76V128.52L244.61 126.42L244.51 124.3V121.4H246.33V130.56C246.33 132.427 245.863 133.8 244.93 134.68C243.997 135.56 242.63 136 240.83 136ZM240.59 131.56C239.563 131.56 238.643 131.347 237.83 130.92C237.03 130.48 236.39 129.873 235.91 129.1C235.443 128.327 235.21 127.433 235.21 126.42C235.21 125.393 235.443 124.5 235.91 123.74C236.39 122.967 237.03 122.367 237.83 121.94C238.643 121.513 239.563 121.3 240.59 121.3C241.497 121.3 242.323 121.487 243.07 121.86C243.817 122.22 244.41 122.78 244.85 123.54C245.303 124.3 245.53 125.26 245.53 126.42C245.53 127.567 245.303 128.52 244.85 129.28C244.41 130.04 243.817 130.613 243.07 131C242.323 131.373 241.497 131.56 240.59 131.56ZM240.81 129.88C241.517 129.88 242.143 129.733 242.69 129.44C243.237 129.147 243.663 128.74 243.97 128.22C244.29 127.7 244.45 127.1 244.45 126.42C244.45 125.74 244.29 125.14 243.97 124.62C243.663 124.1 243.237 123.7 242.69 123.42C242.143 123.127 241.517 122.98 240.81 122.98C240.103 122.98 239.47 123.127 238.91 123.42C238.363 123.7 237.93 124.1 237.61 124.62C237.303 125.14 237.15 125.74 237.15 126.42C237.15 127.1 237.303 127.7 237.61 128.22C237.93 128.74 238.363 129.147 238.91 129.44C239.47 129.733 240.103 129.88 240.81 129.88ZM254.539 132.12C253.472 132.12 252.525 131.887 251.699 131.42C250.872 130.953 250.219 130.313 249.739 129.5C249.259 128.673 249.019 127.74 249.019 126.7C249.019 125.647 249.259 124.713 249.739 123.9C250.219 123.087 250.872 122.453 251.699 122C252.525 121.533 253.472 121.3 254.539 121.3C255.592 121.3 256.532 121.533 257.359 122C258.199 122.453 258.852 123.087 259.319 123.9C259.799 124.7 260.039 125.633 260.039 126.7C260.039 127.753 259.799 128.687 259.319 129.5C258.852 130.313 258.199 130.953 257.359 131.42C256.532 131.887 255.592 132.12 254.539 132.12ZM254.539 130.44C255.219 130.44 255.825 130.287 256.359 129.98C256.905 129.673 257.332 129.24 257.639 128.68C257.945 128.107 258.099 127.447 258.099 126.7C258.099 125.94 257.945 125.287 257.639 124.74C257.332 124.18 256.905 123.747 256.359 123.44C255.825 123.133 255.219 122.98 254.539 122.98C253.859 122.98 253.252 123.133 252.719 123.44C252.185 123.747 251.759 124.18 251.439 124.74C251.119 125.287 250.959 125.94 250.959 126.7C250.959 127.447 251.119 128.107 251.439 128.68C251.759 129.24 252.185 129.673 252.719 129.98C253.252 130.287 253.859 130.44 254.539 130.44ZM273.685 132.12C272.778 132.12 271.958 131.92 271.225 131.52C270.505 131.107 269.932 130.5 269.505 129.7C269.092 128.9 268.885 127.9 268.885 126.7C268.885 125.5 269.098 124.5 269.525 123.7C269.965 122.9 270.545 122.3 271.265 121.9C271.998 121.5 272.805 121.3 273.685 121.3C274.725 121.3 275.645 121.527 276.445 121.98C277.245 122.433 277.878 123.067 278.345 123.88C278.812 124.68 279.045 125.62 279.045 126.7C279.045 127.78 278.812 128.727 278.345 129.54C277.878 130.353 277.245 130.987 276.445 131.44C275.645 131.893 274.725 132.12 273.685 132.12ZM268.065 132V117.16H269.985V124.22L269.785 126.68L269.905 129.14V132H268.065ZM273.525 130.44C274.205 130.44 274.812 130.287 275.345 129.98C275.892 129.673 276.318 129.24 276.625 128.68C276.945 128.107 277.105 127.447 277.105 126.7C277.105 125.94 276.945 125.287 276.625 124.74C276.318 124.18 275.892 123.747 275.345 123.44C274.812 123.133 274.205 122.98 273.525 122.98C272.858 122.98 272.252 123.133 271.705 123.44C271.172 123.747 270.745 124.18 270.425 124.74C270.118 125.287 269.965 125.94 269.965 126.7C269.965 127.447 270.118 128.107 270.425 128.68C270.745 129.24 271.172 129.673 271.705 129.98C272.252 130.287 272.858 130.44 273.525 130.44ZM288.18 132V129.76L288.08 129.34V125.52C288.08 124.707 287.84 124.08 287.36 123.64C286.894 123.187 286.187 122.96 285.24 122.96C284.614 122.96 284 123.067 283.4 123.28C282.8 123.48 282.294 123.753 281.88 124.1L281.08 122.66C281.627 122.22 282.28 121.887 283.04 121.66C283.814 121.42 284.62 121.3 285.46 121.3C286.914 121.3 288.034 121.653 288.82 122.36C289.607 123.067 290 124.147 290 125.6V132H288.18ZM284.7 132.12C283.914 132.12 283.22 131.987 282.62 131.72C282.034 131.453 281.58 131.087 281.26 130.62C280.94 130.14 280.78 129.6 280.78 129C280.78 128.427 280.914 127.907 281.18 127.44C281.46 126.973 281.907 126.6 282.52 126.32C283.147 126.04 283.987 125.9 285.04 125.9H288.4V127.28H285.12C284.16 127.28 283.514 127.44 283.18 127.76C282.847 128.08 282.68 128.467 282.68 128.92C282.68 129.44 282.887 129.86 283.3 130.18C283.714 130.487 284.287 130.64 285.02 130.64C285.74 130.64 286.367 130.48 286.9 130.16C287.447 129.84 287.84 129.373 288.08 128.76L288.46 130.08C288.207 130.707 287.76 131.207 287.12 131.58C286.48 131.94 285.674 132.12 284.7 132.12ZM298.173 132.12C297.093 132.12 296.127 131.887 295.273 131.42C294.433 130.953 293.773 130.313 293.293 129.5C292.813 128.687 292.573 127.753 292.573 126.7C292.573 125.647 292.813 124.713 293.293 123.9C293.773 123.087 294.433 122.453 295.273 122C296.127 121.533 297.093 121.3 298.173 121.3C299.133 121.3 299.987 121.493 300.733 121.88C301.493 122.253 302.08 122.813 302.493 123.56L301.033 124.5C300.687 123.98 300.26 123.6 299.753 123.36C299.26 123.107 298.727 122.98 298.153 122.98C297.46 122.98 296.84 123.133 296.293 123.44C295.747 123.747 295.313 124.18 294.993 124.74C294.673 125.287 294.513 125.94 294.513 126.7C294.513 127.46 294.673 128.12 294.993 128.68C295.313 129.24 295.747 129.673 296.293 129.98C296.84 130.287 297.46 130.44 298.153 130.44C298.727 130.44 299.26 130.32 299.753 130.08C300.26 129.827 300.687 129.44 301.033 128.92L302.493 129.84C302.08 130.573 301.493 131.14 300.733 131.54C299.987 131.927 299.133 132.12 298.173 132.12ZM306.402 129.44L306.442 126.98L312.542 121.4H314.862L310.182 126L309.142 126.88L306.402 129.44ZM304.842 132V117.16H306.762V132H304.842ZM312.942 132L308.782 126.84L310.022 125.3L315.302 132H312.942ZM326.178 132.12C325.111 132.12 324.284 131.833 323.698 131.26C323.111 130.687 322.818 129.867 322.818 128.8V119.08H324.738V128.72C324.738 129.293 324.878 129.733 325.158 130.04C325.451 130.347 325.864 130.5 326.398 130.5C326.998 130.5 327.498 130.333 327.898 130L328.498 131.38C328.204 131.633 327.851 131.82 327.438 131.94C327.038 132.06 326.618 132.12 326.178 132.12ZM321.018 122.98V121.4H327.778V122.98H321.018ZM335.007 132.12C333.941 132.12 332.994 131.887 332.167 131.42C331.341 130.953 330.687 130.313 330.207 129.5C329.727 128.673 329.487 127.74 329.487 126.7C329.487 125.647 329.727 124.713 330.207 123.9C330.687 123.087 331.341 122.453 332.167 122C332.994 121.533 333.941 121.3 335.007 121.3C336.061 121.3 337.001 121.533 337.827 122C338.667 122.453 339.321 123.087 339.787 123.9C340.267 124.7 340.507 125.633 340.507 126.7C340.507 127.753 340.267 128.687 339.787 129.5C339.321 130.313 338.667 130.953 337.827 131.42C337.001 131.887 336.061 132.12 335.007 132.12ZM335.007 130.44C335.687 130.44 336.294 130.287 336.827 129.98C337.374 129.673 337.801 129.24 338.107 128.68C338.414 128.107 338.567 127.447 338.567 126.7C338.567 125.94 338.414 125.287 338.107 124.74C337.801 124.18 337.374 123.747 336.827 123.44C336.294 123.133 335.687 122.98 335.007 122.98C334.327 122.98 333.721 123.133 333.187 123.44C332.654 123.747 332.227 124.18 331.907 124.74C331.587 125.287 331.427 125.94 331.427 126.7C331.427 127.447 331.587 128.107 331.907 128.68C332.227 129.24 332.654 129.673 333.187 129.98C333.721 130.287 334.327 130.44 335.007 130.44ZM352.174 132.12C351.107 132.12 350.281 131.833 349.694 131.26C349.107 130.687 348.814 129.867 348.814 128.8V119.08H350.734V128.72C350.734 129.293 350.874 129.733 351.154 130.04C351.447 130.347 351.861 130.5 352.394 130.5C352.994 130.5 353.494 130.333 353.894 130L354.494 131.38C354.201 131.633 353.847 131.82 353.434 131.94C353.034 132.06 352.614 132.12 352.174 132.12ZM347.014 122.98V121.4H353.774V122.98H347.014ZM362.475 121.3C363.342 121.3 364.102 121.467 364.755 121.8C365.422 122.133 365.942 122.64 366.315 123.32C366.688 124 366.875 124.86 366.875 125.9V132H364.955V126.12C364.955 125.093 364.702 124.32 364.195 123.8C363.702 123.28 363.002 123.02 362.095 123.02C361.415 123.02 360.822 123.153 360.315 123.42C359.808 123.687 359.415 124.08 359.135 124.6C358.868 125.12 358.735 125.767 358.735 126.54V132H356.815V117.16H358.735V124.26L358.355 123.5C358.702 122.807 359.235 122.267 359.955 121.88C360.675 121.493 361.515 121.3 362.475 121.3ZM375.148 132.12C374.015 132.12 373.015 131.887 372.148 131.42C371.295 130.953 370.628 130.313 370.148 129.5C369.682 128.687 369.448 127.753 369.448 126.7C369.448 125.647 369.675 124.713 370.128 123.9C370.595 123.087 371.228 122.453 372.028 122C372.842 121.533 373.755 121.3 374.768 121.3C375.795 121.3 376.702 121.527 377.488 121.98C378.275 122.433 378.888 123.073 379.328 123.9C379.782 124.713 380.008 125.667 380.008 126.76C380.008 126.84 380.002 126.933 379.988 127.04C379.988 127.147 379.982 127.247 379.968 127.34H370.948V125.96H378.968L378.188 126.44C378.202 125.76 378.062 125.153 377.768 124.62C377.475 124.087 377.068 123.673 376.548 123.38C376.042 123.073 375.448 122.92 374.768 122.92C374.102 122.92 373.508 123.073 372.988 123.38C372.468 123.673 372.062 124.093 371.768 124.64C371.475 125.173 371.328 125.787 371.328 126.48V126.8C371.328 127.507 371.488 128.14 371.808 128.7C372.142 129.247 372.602 129.673 373.188 129.98C373.775 130.287 374.448 130.44 375.208 130.44C375.835 130.44 376.402 130.333 376.908 130.12C377.428 129.907 377.882 129.587 378.268 129.16L379.328 130.4C378.848 130.96 378.248 131.387 377.528 131.68C376.822 131.973 376.028 132.12 375.148 132.12ZM393.706 121.3C394.572 121.3 395.332 121.467 395.986 121.8C396.652 122.133 397.172 122.64 397.546 123.32C397.919 124 398.106 124.86 398.106 125.9V132H396.186V126.12C396.186 125.093 395.932 124.32 395.426 123.8C394.932 123.28 394.232 123.02 393.326 123.02C392.646 123.02 392.052 123.153 391.546 123.42C391.039 123.687 390.646 124.08 390.366 124.6C390.099 125.12 389.966 125.767 389.966 126.54V132H388.046V117.16H389.966V124.26L389.586 123.5C389.932 122.807 390.466 122.267 391.186 121.88C391.906 121.493 392.746 121.3 393.706 121.3ZM406.199 132.12C405.132 132.12 404.186 131.887 403.359 131.42C402.532 130.953 401.879 130.313 401.399 129.5C400.919 128.673 400.679 127.74 400.679 126.7C400.679 125.647 400.919 124.713 401.399 123.9C401.879 123.087 402.532 122.453 403.359 122C404.186 121.533 405.132 121.3 406.199 121.3C407.252 121.3 408.192 121.533 409.019 122C409.859 122.453 410.512 123.087 410.979 123.9C411.459 124.7 411.699 125.633 411.699 126.7C411.699 127.753 411.459 128.687 410.979 129.5C410.512 130.313 409.859 130.953 409.019 131.42C408.192 131.887 407.252 132.12 406.199 132.12ZM406.199 130.44C406.879 130.44 407.486 130.287 408.019 129.98C408.566 129.673 408.992 129.24 409.299 128.68C409.606 128.107 409.759 127.447 409.759 126.7C409.759 125.94 409.606 125.287 409.299 124.74C408.992 124.18 408.566 123.747 408.019 123.44C407.486 123.133 406.879 122.98 406.199 122.98C405.519 122.98 404.912 123.133 404.379 123.44C403.846 123.747 403.419 124.18 403.099 124.74C402.779 125.287 402.619 125.94 402.619 126.7C402.619 127.447 402.779 128.107 403.099 128.68C403.419 129.24 403.846 129.673 404.379 129.98C404.912 130.287 405.519 130.44 406.199 130.44ZM427.614 121.3C428.468 121.3 429.221 121.467 429.874 121.8C430.528 122.133 431.034 122.64 431.394 123.32C431.768 124 431.954 124.86 431.954 125.9V132H430.034V126.12C430.034 125.093 429.794 124.32 429.314 123.8C428.834 123.28 428.161 123.02 427.294 123.02C426.654 123.02 426.094 123.153 425.614 123.42C425.134 123.687 424.761 124.08 424.494 124.6C424.241 125.12 424.114 125.767 424.114 126.54V132H422.194V126.12C422.194 125.093 421.954 124.32 421.474 123.8C421.008 123.28 420.334 123.02 419.454 123.02C418.828 123.02 418.274 123.153 417.794 123.42C417.314 123.687 416.941 124.08 416.674 124.6C416.408 125.12 416.274 125.767 416.274 126.54V132H414.354V121.4H416.194V124.22L415.894 123.5C416.228 122.807 416.741 122.267 417.434 121.88C418.128 121.493 418.934 121.3 419.854 121.3C420.868 121.3 421.741 121.553 422.474 122.06C423.208 122.553 423.688 123.307 423.914 124.32L423.134 124C423.454 123.187 424.014 122.533 424.814 122.04C425.614 121.547 426.548 121.3 427.614 121.3ZM440.207 132.12C439.074 132.12 438.074 131.887 437.207 131.42C436.354 130.953 435.687 130.313 435.207 129.5C434.74 128.687 434.507 127.753 434.507 126.7C434.507 125.647 434.734 124.713 435.187 123.9C435.654 123.087 436.287 122.453 437.087 122C437.9 121.533 438.814 121.3 439.827 121.3C440.854 121.3 441.76 121.527 442.547 121.98C443.334 122.433 443.947 123.073 444.387 123.9C444.84 124.713 445.067 125.667 445.067 126.76C445.067 126.84 445.06 126.933 445.047 127.04C445.047 127.147 445.04 127.247 445.027 127.34H436.007V125.96H444.027L443.247 126.44C443.26 125.76 443.12 125.153 442.827 124.62C442.534 124.087 442.127 123.673 441.607 123.38C441.1 123.073 440.507 122.92 439.827 122.92C439.16 122.92 438.567 123.073 438.047 123.38C437.527 123.673 437.12 124.093 436.827 124.64C436.534 125.173 436.387 125.787 436.387 126.48V126.8C436.387 127.507 436.547 128.14 436.867 128.7C437.2 129.247 437.66 129.673 438.247 129.98C438.834 130.287 439.507 130.44 440.267 130.44C440.894 130.44 441.46 130.333 441.967 130.12C442.487 129.907 442.94 129.587 443.327 129.16L444.387 130.4C443.907 130.96 443.307 131.387 442.587 131.68C441.88 131.973 441.087 132.12 440.207 132.12ZM453.353 132.12C452.473 132.12 451.666 131.92 450.933 131.52C450.213 131.107 449.633 130.5 449.193 129.7C448.766 128.9 448.553 127.9 448.553 126.7C448.553 125.5 448.76 124.5 449.173 123.7C449.6 122.9 450.173 122.3 450.893 121.9C451.626 121.5 452.446 121.3 453.353 121.3C454.393 121.3 455.313 121.527 456.113 121.98C456.913 122.433 457.546 123.067 458.013 123.88C458.48 124.68 458.713 125.62 458.713 126.7C458.713 127.78 458.48 128.727 458.013 129.54C457.546 130.353 456.913 130.987 456.113 131.44C455.313 131.893 454.393 132.12 453.353 132.12ZM447.733 135.88V121.4H449.573V124.26L449.453 126.72L449.653 129.18V135.88H447.733ZM453.193 130.44C453.873 130.44 454.48 130.287 455.013 129.98C455.56 129.673 455.986 129.24 456.293 128.68C456.613 128.107 456.773 127.447 456.773 126.7C456.773 125.94 456.613 125.287 456.293 124.74C455.986 124.18 455.56 123.747 455.013 123.44C454.48 123.133 453.873 122.98 453.193 122.98C452.526 122.98 451.92 123.133 451.373 123.44C450.84 123.747 450.413 124.18 450.093 124.74C449.786 125.287 449.633 125.94 449.633 126.7C449.633 127.447 449.786 128.107 450.093 128.68C450.413 129.24 450.84 129.673 451.373 129.98C451.92 130.287 452.526 130.44 453.193 130.44ZM467.848 132V129.76L467.748 129.34V125.52C467.748 124.707 467.508 124.08 467.028 123.64C466.562 123.187 465.855 122.96 464.908 122.96C464.282 122.96 463.668 123.067 463.068 123.28C462.468 123.48 461.962 123.753 461.548 124.1L460.748 122.66C461.295 122.22 461.948 121.887 462.708 121.66C463.482 121.42 464.288 121.3 465.128 121.3C466.582 121.3 467.702 121.653 468.488 122.36C469.275 123.067 469.668 124.147 469.668 125.6V132H467.848ZM464.368 132.12C463.582 132.12 462.888 131.987 462.288 131.72C461.702 131.453 461.248 131.087 460.928 130.62C460.608 130.14 460.448 129.6 460.448 129C460.448 128.427 460.582 127.907 460.848 127.44C461.128 126.973 461.575 126.6 462.188 126.32C462.815 126.04 463.655 125.9 464.708 125.9H468.068V127.28H464.788C463.828 127.28 463.182 127.44 462.848 127.76C462.515 128.08 462.348 128.467 462.348 128.92C462.348 129.44 462.555 129.86 462.968 130.18C463.382 130.487 463.955 130.64 464.688 130.64C465.408 130.64 466.035 130.48 466.568 130.16C467.115 129.84 467.508 129.373 467.748 128.76L468.128 130.08C467.875 130.707 467.428 131.207 466.788 131.58C466.148 131.94 465.342 132.12 464.368 132.12ZM477.861 136C476.888 136 475.941 135.86 475.021 135.58C474.115 135.313 473.375 134.927 472.801 134.42L473.721 132.94C474.215 133.367 474.821 133.7 475.541 133.94C476.261 134.193 477.015 134.32 477.801 134.32C479.055 134.32 479.975 134.027 480.561 133.44C481.148 132.853 481.441 131.96 481.441 130.76V128.52L481.641 126.42L481.541 124.3V121.4H483.361V130.56C483.361 132.427 482.895 133.8 481.961 134.68C481.028 135.56 479.661 136 477.861 136ZM477.621 131.56C476.595 131.56 475.675 131.347 474.861 130.92C474.061 130.48 473.421 129.873 472.941 129.1C472.475 128.327 472.241 127.433 472.241 126.42C472.241 125.393 472.475 124.5 472.941 123.74C473.421 122.967 474.061 122.367 474.861 121.94C475.675 121.513 476.595 121.3 477.621 121.3C478.528 121.3 479.355 121.487 480.101 121.86C480.848 122.22 481.441 122.78 481.881 123.54C482.335 124.3 482.561 125.26 482.561 126.42C482.561 127.567 482.335 128.52 481.881 129.28C481.441 130.04 480.848 130.613 480.101 131C479.355 131.373 478.528 131.56 477.621 131.56ZM477.841 129.88C478.548 129.88 479.175 129.733 479.721 129.44C480.268 129.147 480.695 128.74 481.001 128.22C481.321 127.7 481.481 127.1 481.481 126.42C481.481 125.74 481.321 125.14 481.001 124.62C480.695 124.1 480.268 123.7 479.721 123.42C479.175 123.127 478.548 122.98 477.841 122.98C477.135 122.98 476.501 123.127 475.941 123.42C475.395 123.7 474.961 124.1 474.641 124.62C474.335 125.14 474.181 125.74 474.181 126.42C474.181 127.1 474.335 127.7 474.641 128.22C474.961 128.74 475.395 129.147 475.941 129.44C476.501 129.733 477.135 129.88 477.841 129.88ZM491.75 132.12C490.617 132.12 489.617 131.887 488.75 131.42C487.897 130.953 487.23 130.313 486.75 129.5C486.283 128.687 486.05 127.753 486.05 126.7C486.05 125.647 486.277 124.713 486.73 123.9C487.197 123.087 487.83 122.453 488.63 122C489.443 121.533 490.357 121.3 491.37 121.3C492.397 121.3 493.303 121.527 494.09 121.98C494.877 122.433 495.49 123.073 495.93 123.9C496.383 124.713 496.61 125.667 496.61 126.76C496.61 126.84 496.603 126.933 496.59 127.04C496.59 127.147 496.583 127.247 496.57 127.34H487.55V125.96H495.57L494.79 126.44C494.803 125.76 494.663 125.153 494.37 124.62C494.077 124.087 493.67 123.673 493.15 123.38C492.643 123.073 492.05 122.92 491.37 122.92C490.703 122.92 490.11 123.073 489.59 123.38C489.07 123.673 488.663 124.093 488.37 124.64C488.077 125.173 487.93 125.787 487.93 126.48V126.8C487.93 127.507 488.09 128.14 488.41 128.7C488.743 129.247 489.203 129.673 489.79 129.98C490.377 130.287 491.05 130.44 491.81 130.44C492.437 130.44 493.003 130.333 493.51 130.12C494.03 129.907 494.483 129.587 494.87 129.16L495.93 130.4C495.45 130.96 494.85 131.387 494.13 131.68C493.423 131.973 492.63 132.12 491.75 132.12ZM499.736 132.12C499.363 132.12 499.043 131.993 498.776 131.74C498.509 131.473 498.376 131.14 498.376 130.74C498.376 130.34 498.509 130.013 498.776 129.76C499.043 129.507 499.363 129.38 499.736 129.38C500.096 129.38 500.403 129.507 500.656 129.76C500.923 130.013 501.056 130.34 501.056 130.74C501.056 131.14 500.923 131.473 500.656 131.74C500.403 131.993 500.096 132.12 499.736 132.12Z" fill="#8B8B8B"/>
</svg>
